<svg width="358.3" height="52.1" xmlns="http://www.w3.org/2000/svg">
 <style type="text/css">.st0{enable-background:new    ;}</style>

 <g>
  <title>background</title>
  <rect fill="none" id="canvas_background" height="200" width="200" y="-1" x="-1"/>
 </g>
 <g>
  <title>Layer 1</title>
  <g id="svg_1" class="st0">
   <path fill="#51e3c2" id="svg_2" d="m0,40.9l1.7,0c0.7,0 1.9,-1.2 1.9,-1.9l0,-25.3c0,-0.7 -1.2,-1.9 -1.9,-1.9l-1.7,0l0,-10.8l44.5,0l0,17.4l-11.3,0l-1.7,-5.7l-7.9,0l0,7.2l10.9,0l0,11.6l-10.9,0l0,8.6l8.1,0l1.5,-7l11.9,0l0,18.3l-45,0l0,-10.5l-0.1,0z"/>
   <path fill="#51e3c2" id="svg_3" d="m51.4,40.9l1.7,0c0.7,0 1.9,-1.2 1.9,-1.9l0,-25.3c0,-0.7 -1.2,-1.9 -1.9,-1.9l-1.7,0l0,-10.8l22.5,0l12.4,22.5l0.2,0l0,-11.7l-3.7,0l0,-10.8l21.2,0l0,10.8l-1.4,0c-0.7,0 -1.9,1.2 -1.9,1.9l0,37.7l-17.4,0l-13.8,-25.1l-0.2,0l0,14.6l4,0l0,10.4l-21.7,0l0,-10.4l-0.2,0z"/>
   <path fill="#51e3c2" id="svg_4" d="m110.1,40.9l1.7,0c0.7,0 1.9,-1.2 1.9,-1.9l0,-25.3c0,-0.7 -1.2,-1.9 -1.9,-1.9l-1.7,0l0,-10.8l25.1,0c20.2,0 28.3,8.1 28.3,24.8c0,16.7 -8.4,25.6 -28.9,25.6l-24.5,0l0,-10.5zm24.5,-0.5c5.6,0 8.5,-4.4 8.5,-13.8s-2.7,-14 -8.5,-14l-0.9,0l0,27.9l0.9,0l0,-0.1z"/>
   <path fill="#51e3c2" id="svg_5" d="m168.8,40.9l1.7,0c0.7,0 1.9,-1.2 1.9,-1.9l0,-25.3c0,-0.7 -1.2,-1.9 -1.9,-1.9l-1.7,0l0,-10.8l28.7,0l0,10.8l-5.2,0l0,28.3l7.3,0l1.5,-8.3l11.9,0l0,19.6l-44.3,0l0.1,-10.5l0,0z"/>
   <path fill="#51e3c2" id="svg_6" d="m219.2,40.9l1.7,0c0.7,0 1.9,-1.2 1.9,-1.9l0,-25.3c0,-0.7 -1.2,-1.9 -1.9,-1.9l-1.7,0l0,-10.8l44.4,0l0,17.4l-11.3,0l-1.7,-5.7l-7.9,0l0,7.2l10.9,0l0,11.6l-10.9,0l0,8.6l8.1,0l1.5,-7l11.9,0l0,18.3l-45,0l0,-10.5z"/>
   <path fill="#51e3c2" id="svg_7" d="m282.6,51.3l-12,0l0,-16.3l12.7,0l1.7,5.6c0.8,0.1 1.7,0.2 2.7,0.2c2.6,0 4.8,-0.8 4.8,-3.2c0,-2.2 -1.8,-3 -6.3,-4.1c-7.5,-1.9 -15.6,-4.3 -15.6,-16.6c0,-12.5 8.6,-16.9 19.4,-16.9c5.1,0 7.6,0.4 10.1,0.9l9.9,0l0,15.1l-12.5,0l-1.7,-5.3c-0.6,-0.1 -1.4,-0.1 -2.2,-0.1c-3.2,0 -5,1 -5,3.4s2.2,2.9 4.5,3.5c14,3.9 18.4,7.2 18.4,17.2c0,11.3 -5.9,17.4 -20.1,17.4c-3.5,0.1 -6,-0.2 -8.8,-0.8z"/>
   <path fill="#51e3c2" id="svg_8" d="m329.5,51.3l-12,0l0,-16.3l12.7,0l1.7,5.6c0.8,0.1 1.7,0.2 2.7,0.2c2.6,0 4.8,-0.8 4.8,-3.2c0,-2.2 -1.8,-3 -6.3,-4.1c-7.5,-1.9 -15.6,-4.3 -15.6,-16.6c0,-12.5 8.6,-16.9 19.4,-16.9c5.1,0 7.6,0.4 10.1,0.9l9.9,0l0,15.1l-12.6,0l-1.7,-5.3c-0.6,-0.1 -1.4,-0.1 -2.2,-0.1c-3.2,0 -5,1 -5,3.4s2.2,2.9 4.5,3.5c14,3.9 18.4,7.2 18.4,17.2c0,11.3 -5.9,17.4 -20.1,17.4c-3.4,0.1 -5.8,-0.2 -8.7,-0.8z"/>
  </g>
 </g>
</svg>